<svg width="6" height="9" viewBox="0 0 6 9" fill="none" xmlns="http://www.w3.org/2000/svg">
<path d="M6 3.75C4.875 3.75 4.575 3.675 3.9 3.6C3.075 3.45 2.4 2.925 2.025 2.175C1.875 1.725 1.575 0.9 1.425 0.3C1.35 0.075 1.275 0 1.2 0H1.125L0.3 0.15C0.075 0.225 0 0.225 0 0.45C0.075 1.275 0.225 3.075 0.225 4.575C0.225 5.55 0.225 8.025 0.15 8.625C0.15 8.85 0.225 8.925 0.375 8.925L1.35 9C1.5 9 1.65 8.925 1.65 8.7C1.65 8.025 2.025 7.2 2.25 6.675C2.7 5.775 3.15 5.475 3.975 5.325C4.125 5.325 4.65 5.25 5.1 5.25H6" fill="#8F8F8F"/>
</svg>
