<svg width="39" height="58" viewBox="0 0 39 58" fill="none" xmlns="http://www.w3.org/2000/svg">
<path d="M38.76 53.8608C38.76 53.0015 38.76 50.8302 38.8315 50.3031C38.8659 50.1055 38.76 50.0396 38.6197 50.0396L37.7123 49.9737C37.6753 49.968 37.6376 49.9708 37.6019 49.9816C37.5661 49.9925 37.5333 50.0113 37.5058 50.0366C37.4783 50.0619 37.4569 50.0931 37.4431 50.1278C37.4293 50.1626 37.4234 50.2 37.426 50.2372C37.426 50.8302 37.0739 51.6695 36.8535 52.082C36.4327 52.8726 36.0119 53.1332 35.2447 53.2679C34.9676 53.3082 34.6886 53.3341 34.4088 53.3452H6.28094C5.59106 53.3108 4.89831 53.265 4.29716 53.202C3.93004 53.1706 3.57722 53.045 3.27282 52.8372C2.96843 52.6295 2.72276 52.3467 2.55957 52.0161C2.33283 51.4802 2.14158 50.93 1.98705 50.369C1.92693 50.2057 1.86968 50.1313 1.76949 50.1313H1.70938L0.939336 50.263C0.727504 50.2945 0.653076 50.3289 0.653076 50.4951C0.724641 51.2198 0.86491 52.7866 0.86491 54.1157C0.86491 54.9751 0.86491 57.1406 0.793345 57.6706C0.758994 57.8654 0.864909 57.9341 1.00518 57.9341L1.91262 57.9971C1.94929 58.0027 1.98674 58.0001 2.02225 57.9893C2.05776 57.9786 2.09043 57.9601 2.11786 57.9351C2.1453 57.9101 2.16681 57.8793 2.18083 57.8449C2.19484 57.8106 2.20101 57.7735 2.19888 57.7365C2.19888 57.1406 2.55098 56.3214 2.7714 55.8917C3.1922 55.1011 3.613 54.8376 4.38018 54.7058C4.6561 54.6638 4.93425 54.6379 5.21319 54.6285H33.3611C34.0453 54.6629 34.7409 54.7087 35.342 54.7717C35.711 54.8003 36.0662 54.9244 36.3729 55.1318C36.6795 55.3392 36.927 55.6228 37.0911 55.9547C37.3182 56.4905 37.5095 57.0407 37.6636 57.6018C37.7208 57.768 37.781 57.8396 37.8783 57.8396H37.9413L38.7142 57.7049C38.926 57.6763 39.0004 57.6391 39.0004 57.4758C38.9146 56.7539 38.76 55.1756 38.76 53.8608Z" fill="white"/>
<path d="M11.8454 5.18471C8.12405 9.08326 6.22614 14.8609 6.22614 20.5985C6.22614 28.7536 9.19752 35.3333 14.0582 38.9999C5.92557 35.9836 2.18989 28.894 2.18989 21.8674C2.18989 14.4198 5.79676 8.52469 11.8454 5.19616V5.18471ZM24.6011 0C9.97614 0 0 8.85411 0 21.856C0 31.8387 6.90458 42.7008 23.2185 42.7008C27.5496 42.7008 33.1345 41.4461 34.8292 41.0709C35.8969 38.934 37.5286 34.1618 38.3445 31.1483L36.2748 30.332C33.1259 36.6138 29.4303 40.0053 23.7853 40.0053C14.874 40.0053 8.41317 32.2168 8.41317 20.5985C8.41317 11.2402 13.6174 2.57517 23.2185 2.57517C28.8063 2.57517 33.2634 4.96128 35.1441 12.1196L37.2767 11.6813C36.9017 7.97471 36.4637 5.15033 35.8969 1.69577C34.2023 1.31766 29.6822 0 24.6011 0Z" fill="white"/>
</svg>
