<svg width="22" height="36" viewBox="0 0 22 36" fill="none" xmlns="http://www.w3.org/2000/svg">
<path fill-rule="evenodd" clip-rule="evenodd" d="M11.9187 0.275957C11.6474 0.255015 11.3729 0.243497 11.0974 0.240356C10.8209 0.238262 10.5474 0.245591 10.2751 0.261298C2.34474 0.729341 -2.34118 9.44313 1.19657 16.5559L10 35.262C10.5 36.24 11.5 36.24 12 35.2777L20.7144 16.7245C24.3747 9.67348 19.8386 0.880121 11.9187 0.275957Z" fill="#141414"/>
<path fill-rule="evenodd" clip-rule="evenodd" d="M10.9656 14.9924C8.75614 14.9728 6.98052 13.168 7.00016 10.9602C7.01891 8.7515 8.82578 6.97794 11.0344 6.99667C13.2439 7.01539 15.0195 8.82105 14.9998 11.0289C14.9811 13.2367 13.1751 15.0111 10.9656 14.9924V14.9924Z" fill="white"/>
</svg>
