<svg width="36" height="50" viewBox="0 0 36 50" fill="none" xmlns="http://www.w3.org/2000/svg">
<path d="M36 18C36 8.1 27.9 0 18 0C8.1 0 0 8.1 0 18C0 21.8 1.2 25.3 3.2 28.2L18 50L32.8 28.2C34.8 25.3 36 21.8 36 18Z" fill="#353535"/>
<path d="M13.5606 10.4339C11.8137 12.2639 10.9227 14.9761 10.9227 17.6695C10.9227 21.4978 12.3176 24.5865 14.5993 26.3077C10.7816 24.8917 9.028 21.5637 9.028 18.2652C9.028 14.7691 10.7212 12.0017 13.5606 10.4392V10.4339ZM19.5485 8C12.6831 8 8 12.1564 8 18.2598C8 22.946 11.2412 28.045 18.8994 28.045C20.9326 28.045 23.5543 27.456 24.3498 27.2799C24.8511 26.2767 25.617 24.0365 26 22.6219L25.0284 22.2387C23.5503 25.1876 21.8155 26.7797 19.1655 26.7797C14.9823 26.7797 11.9494 23.1235 11.9494 17.6695C11.9494 13.2765 14.3924 9.20886 18.8994 9.20886C21.5225 9.20886 23.6148 10.329 24.4977 13.6893L25.4988 13.4836C25.3227 11.7436 25.1171 10.4177 24.8511 8.79604C24.0555 8.61855 21.9337 8 19.5485 8Z" fill="white"/>
</svg>
