<svg width="9" height="6" viewBox="0 0 9 6" fill="none" xmlns="http://www.w3.org/2000/svg">
<path d="M5.25 0C5.25 1.125 5.325 1.425 5.4 2.1C5.55 2.925 6.075 3.675 6.825 3.975C7.275 4.125 8.1 4.425 8.7 4.575C8.925 4.575 9 4.65 9 4.8V4.875L8.85 5.7C8.775 5.925 8.775 6 8.55 6C7.725 5.925 5.925 5.775 4.425 5.775C3.45 5.775 0.975 5.775 0.375 5.85C0.15 5.85 0.0750008 5.775 0.0750008 5.625L0 4.65C0 4.5 0.0749998 4.35 0.299999 4.35C0.974999 4.35 1.8 3.975 2.325 3.75C3.225 3.3 3.525 2.85 3.675 2.025C3.675 1.875 3.75 1.425 3.75 0.900001V0" fill="#181F1A"/>
</svg>
