<svg width="6" height="9" viewBox="0 0 6 9" fill="none" xmlns="http://www.w3.org/2000/svg">
<path d="M0 3.75C1.125 3.75 1.425 3.675 2.1 3.6C2.925 3.45 3.675 2.925 3.975 2.175C4.125 1.725 4.425 0.9 4.575 0.3C4.575 0.075 4.65 0 4.8 0H4.875L5.7 0.15C5.925 0.225 6 0.225 6 0.45C5.925 1.275 5.775 3.075 5.775 4.575C5.775 5.55 5.775 8.025 5.85 8.625C5.85 8.85 5.775 8.925 5.625 8.925L4.65 9C4.5 9 4.35 8.925 4.35 8.7C4.35 8.025 3.975 7.2 3.75 6.675C3.3 5.775 2.85 5.475 2.025 5.325C1.875 5.325 1.425 5.25 0.900001 5.25H0" fill="#8F8F8F"/>
</svg>
