<svg width="9" height="6" viewBox="0 0 9 6" fill="none" xmlns="http://www.w3.org/2000/svg">
<path d="M5.25 6C5.25 4.875 5.325 4.575 5.4 3.9C5.55 3.075 6.075 2.4 6.825 2.025C7.275 1.875 8.1 1.575 8.7 1.425C8.925 1.35 9 1.275 9 1.2V1.125L8.85 0.3C8.775 0.075 8.775 0 8.55 0C7.725 0.075 5.925 0.225 4.425 0.225C3.45 0.225 0.975 0.225 0.375 0.15C0.15 0.15 0.0750008 0.225 0.0750008 0.375L0 1.35C0 1.5 0.0749998 1.65 0.299999 1.65C0.974999 1.65 1.8 2.025 2.325 2.25C3.225 2.7 3.525 3.15 3.675 3.975C3.675 4.125 3.75 4.65 3.75 5.1V6" fill="white"/>
</svg>
