<svg width="348" height="35" viewBox="0 0 348 35" fill="none" xmlns="http://www.w3.org/2000/svg">
<g clip-path="url(#clip0)">
<path d="M63.2039 7.44684C57.8278 7.44684 53.5544 11.7891 53.5544 17.0963C53.5544 22.4724 57.8278 26.6768 63.2039 26.6768C68.58 26.6768 72.8533 22.4724 72.8533 17.0963C72.8533 11.7891 68.58 7.44684 63.2039 7.44684ZM63.2039 25.574C58.517 25.574 54.7262 21.8521 54.7262 17.1652C54.7262 12.4783 58.517 8.68748 63.2039 8.68748C67.8907 8.68748 71.6816 12.4783 71.6816 17.1652C71.6816 21.8521 67.8907 25.574 63.2039 25.574ZM98.3554 8.06716V26.4011C98.3554 26.6079 98.1486 26.7457 97.9419 26.7457H97.5972C97.5972 26.7457 97.3215 26.6768 84.6394 9.8592V26.1254C84.6394 26.3322 84.5016 26.47 84.2948 26.47H83.8123C83.6055 26.47 83.4677 26.3322 83.4677 26.1254V7.79146C83.4677 7.58469 83.6745 7.44684 83.8812 7.44684H84.3637L97.2526 24.1955V8.06716C97.2526 7.86039 97.3905 7.72254 97.5972 7.72254H98.1486C98.1486 7.72254 98.3554 7.92931 98.3554 8.06716ZM121.583 8.06716V8.54963C121.583 8.7564 121.445 8.89425 121.238 8.89425H111.451V16.2692H119.929C120.136 16.2692 120.273 16.407 120.273 16.6138V17.0963C120.273 17.303 120.136 17.4409 119.929 17.4409H111.451V25.3672H121.238C121.445 25.3672 121.583 25.5051 121.583 25.7118V26.1254C121.583 26.3322 121.445 26.47 121.238 26.47H110.486C110.279 26.47 110.141 26.3322 110.141 26.1254V8.06716C110.141 7.86039 110.279 7.72254 110.486 7.72254H121.238C121.445 7.72254 121.583 7.92931 121.583 8.06716ZM152.461 8.06716L147.154 26.5389C147.154 26.6768 147.016 26.7457 146.947 26.7457H146.672C146.534 26.7457 146.465 26.6768 146.396 26.5389L141.571 10.2038H141.502L136.677 26.5389C136.609 26.6768 136.54 26.7457 136.402 26.7457H136.126C135.988 26.7457 135.919 26.6768 135.85 26.5389L130.543 8.06716C130.474 7.79146 130.612 7.72254 130.819 7.72254H131.439C131.577 7.72254 131.715 7.86039 131.784 7.99823L136.264 23.713H136.333L141.02 7.72254C141.089 7.58469 141.226 7.51576 141.433 7.51576H141.502C141.64 7.51576 141.847 7.58469 141.916 7.72254L146.672 23.713H146.74L151.221 7.99823C151.221 7.86039 151.358 7.72254 151.565 7.72254H152.185C152.392 7.72254 152.53 7.79146 152.461 8.06716ZM170.657 7.44684C165.281 7.44684 161.008 11.7891 161.008 17.0963C161.008 22.4724 165.281 26.6768 170.657 26.6768C176.033 26.6768 180.307 22.4724 180.307 17.0963C180.376 11.7891 176.102 7.44684 170.657 7.44684ZM170.657 25.574C165.97 25.574 162.18 21.8521 162.18 17.1652C162.18 12.4783 165.97 8.68748 170.657 8.68748C175.344 8.68748 179.135 12.4783 179.135 17.1652C179.204 21.8521 175.344 25.574 170.657 25.574ZM203.81 13.4433C203.81 10.2038 201.122 7.72254 197.814 7.72254H191.197C190.99 7.72254 190.852 7.86039 190.852 8.06716V26.1254C190.852 26.3322 190.99 26.47 191.197 26.47H191.679C191.955 26.47 192.093 26.3322 192.093 26.1254V19.2329H196.986C197.331 19.2329 197.607 19.2329 197.951 19.2329L201.811 26.2632C201.88 26.4011 202.018 26.47 202.156 26.47H202.983C203.259 26.47 203.327 26.1943 203.19 25.9875L199.261 19.0262C201.949 18.3369 203.81 16.2003 203.81 13.4433ZM197.814 18.1301H192.162V8.96318H197.814C200.433 8.96318 202.569 10.8931 202.569 13.4433C202.5 16.1313 200.364 18.1301 197.814 18.1301ZM224.556 25.7118V26.1943C224.556 26.4011 224.418 26.47 224.212 26.47H214.769C214.562 26.47 214.424 26.3322 214.424 26.1254V8.06716C214.424 7.86039 214.562 7.72254 214.769 7.72254H215.389C215.527 7.72254 215.734 7.86039 215.734 8.06716V25.3672H224.281C224.556 25.3672 224.556 25.5051 224.556 25.7118ZM239.651 7.72254H233.999C233.861 7.72254 233.654 7.86039 233.654 8.06716V26.1254C233.654 26.3322 233.792 26.47 233.999 26.47H239.651C244.82 26.47 249.093 22.2656 249.093 17.0963C249.093 11.9269 244.889 7.72254 239.651 7.72254ZM239.444 25.3672H234.895V8.89425H239.444C244.131 8.89425 247.715 12.4783 247.715 17.0963C247.784 21.7831 244.131 25.3672 239.444 25.3672Z" fill="white"/>
<path d="M273.148 15.7869V26.1946C273.148 26.3324 273.01 26.4703 272.872 26.4703H271.011C270.805 26.4703 270.736 26.3324 270.736 26.1946V22.0591H266.256V26.1946C266.256 26.3324 266.118 26.4703 265.98 26.4703H263.981C263.843 26.4703 263.705 26.3324 263.705 26.1946V15.7869C263.705 15.6491 263.843 15.5112 263.981 15.5112H265.842C266.049 15.5112 266.118 15.6491 266.118 15.7869V19.7846H270.598V15.7869C270.598 15.6491 270.736 15.5112 270.873 15.5112H272.734C273.01 15.4423 273.148 15.5802 273.148 15.7869ZM288.174 15.4423H281.626C281.419 15.4423 281.35 15.5802 281.35 15.718V26.1946C281.35 26.3324 281.488 26.4703 281.626 26.4703H288.174C288.38 26.4703 288.449 26.3324 288.449 26.1946V24.4714C288.449 24.3336 288.311 24.1957 288.174 24.1957H283.831V22.0591H287.415C287.553 22.0591 287.691 21.9212 287.691 21.7834V20.0603C287.691 19.9224 287.553 19.7846 287.415 19.7846H283.831V17.8547H288.174C288.38 17.8547 288.449 17.7168 288.449 17.579V15.8559C288.449 15.5802 288.311 15.4423 288.174 15.4423ZM305.198 26.0567C305.267 26.2635 305.198 26.4703 304.922 26.4703H303.199C302.923 26.4703 302.786 26.4013 302.648 26.0567L302.096 24.8161H297.823L297.272 26.0567C297.203 26.2635 296.996 26.4013 296.72 26.4013H294.997C294.79 26.4013 294.652 26.1946 294.721 25.9878L299.684 15.3734C299.753 15.3045 299.822 15.1666 299.96 15.1666H300.097C300.235 15.1666 300.304 15.2355 300.373 15.3734L305.198 26.0567ZM301.131 22.6794L299.96 20.0603L298.788 22.6794H301.131ZM318.225 24.1957H314.503V15.7869C314.503 15.6491 314.365 15.5112 314.227 15.5112H312.366C312.159 15.5112 312.09 15.6491 312.09 15.7869V26.1946C312.09 26.3324 312.228 26.4703 312.366 26.4703H318.294C318.5 26.4703 318.569 26.3324 318.569 26.1946V24.4714C318.569 24.3336 318.431 24.1957 318.225 24.1957ZM331.182 15.4423H324.221C324.014 15.4423 323.945 15.5802 323.945 15.718V17.4411C323.945 17.579 324.083 17.7168 324.221 17.7168H326.496V26.1946C326.496 26.3324 326.633 26.4703 326.771 26.4703H328.632C328.77 26.4703 328.908 26.3324 328.908 26.1946V17.7858H331.182C331.389 17.7858 331.458 17.6479 331.458 17.5101V15.7869C331.458 15.5802 331.32 15.4423 331.182 15.4423ZM347.724 15.4423H345.863C345.657 15.4423 345.588 15.5802 345.588 15.718V19.7156H341.108V15.718C341.108 15.5802 340.97 15.4423 340.832 15.4423H338.971C338.833 15.4423 338.695 15.5802 338.695 15.718V26.1946C338.695 26.3324 338.833 26.4703 338.971 26.4703H340.832C341.039 26.4703 341.108 26.3324 341.108 26.1946V22.0591H345.588V26.1946C345.588 26.3324 345.726 26.4703 345.863 26.4703H347.724C347.862 26.4703 348 26.3324 348 26.1946V15.7869C348 15.5802 347.862 15.4423 347.724 15.4423Z" fill="white"/>
<path d="M22.2629 0.00439453H12.4067L24.7442 7.17255V21.4399L29.7068 18.614V4.27772L22.2629 0.00439453Z" fill="#E0E328"/>
<path d="M29.7065 4.27899V18.6153L17.3 25.7145L22.2626 28.6094L34.669 21.4412V12.8946L29.7065 4.27899Z" fill="white"/>
<path d="M12.4064 5.72797L0 12.8961V21.4428L4.96257 29.9894V15.722L17.3001 8.55387L12.4064 5.72797Z" fill="#D0D2D6"/>
<path d="M9.92521 27.1626V12.8953L4.96265 15.7212V29.9885L12.4065 34.3308H22.2627L9.92521 27.1626Z" fill="#A1A8B0"/>
<path d="M12.4064 0.00421143L4.96257 4.27753L0 12.8931L12.4064 5.72495L24.7439 12.8931V7.17236L12.4064 0.00421143Z" fill="white"/>
<path d="M22.2625 28.612L9.92505 21.4438V27.1646L22.2625 34.3327L29.7064 29.9905L34.669 21.4438L22.2625 28.612Z" fill="#D0D2D6"/>
</g>
<defs>
<clipPath id="clip0">
<rect width="348" height="34.3244" fill="white"/>
</clipPath>
</defs>
</svg>
