<svg width="285" height="57" viewBox="0 0 285 57" fill="none" xmlns="http://www.w3.org/2000/svg">
<g clip-path="url(#clip0)">
<path d="M19.428 40.4347C19.9911 39.2521 20.6106 37.8443 21.23 36.2675C21.8494 34.6907 22.5252 33.0577 23.1446 31.3683C23.7641 29.6789 24.3835 28.1021 24.8903 26.469C25.4535 24.8923 25.904 23.4845 26.2418 22.3019H24.2709C23.933 23.3718 23.5951 24.5544 23.0883 25.8496C22.6378 27.1448 22.131 28.4963 21.6242 29.9041C21.1174 31.2557 20.5542 32.6635 19.9911 34.0713C19.428 35.4791 18.8648 36.8306 18.358 38.0695C17.8512 36.8306 17.2881 35.4791 16.725 34.0713C16.1618 32.6635 15.5987 31.2557 15.0919 29.9041C14.5851 28.5526 14.0782 27.2011 13.6277 25.8496C13.1772 24.4981 12.783 23.3718 12.4452 22.3019H10.4179C10.6995 23.1466 10.9247 23.9913 11.2063 24.7797C11.4878 25.568 11.7694 26.469 12.1073 27.4827C11.4878 29.2284 10.8121 31.0304 10.0237 32.945C9.23533 34.8034 8.55957 36.5491 7.88382 38.1258C7.377 36.8869 6.81387 35.5354 6.25074 34.1276C5.68761 32.7198 5.12448 31.312 4.61766 29.9605C4.11085 28.6089 3.60403 27.2574 3.15353 25.9059C2.70302 24.5544 2.30883 23.4281 1.97095 22.3582H0C0.337878 23.5408 0.788382 24.9486 1.35151 26.5254C1.91464 28.1021 2.47777 29.7352 3.15353 31.4246C3.77297 33.114 4.44873 34.7471 5.06817 36.3238C5.68761 37.9006 6.30705 39.3084 6.87018 40.491H8.89745C9.23533 39.8152 9.57321 39.0832 9.9674 38.1821C10.3616 37.2811 10.6995 36.3801 11.0937 35.4791C11.4878 34.5218 11.8257 33.6208 12.1636 32.7198C12.5015 31.8188 12.8394 30.9741 13.1209 30.2983C13.7967 32.213 14.4724 34.1276 15.2045 35.8733C15.9366 37.6753 16.6123 39.1958 17.2318 40.5473H19.3154V40.4347H19.428ZM31.3663 38.0132C30.6343 37.3938 30.2964 36.4928 30.2964 35.3665C30.2964 34.5218 30.4653 33.846 30.8595 33.2829C31.2537 32.7198 31.7605 32.3256 32.38 31.9877C32.9994 31.6498 33.7315 31.4246 34.5199 31.312C35.3082 31.1993 36.1529 31.0867 36.9976 31.0867C37.5044 31.0867 38.0113 31.143 38.5181 31.143C39.0249 31.143 39.3628 31.1993 39.5317 31.2557V36.8306C38.9123 37.3375 38.1802 37.8443 37.2792 38.2948C36.3782 38.7453 35.3646 38.9705 34.182 38.9705C33.0557 38.9142 32.0984 38.6327 31.3663 38.0132ZM30.1838 24.9486C30.9721 24.6107 31.8168 24.3855 32.6052 24.1602C33.4499 23.9913 34.3509 23.8787 35.2519 23.8787C36.8287 23.8787 37.8986 24.2165 38.5744 24.9486C39.1938 25.6807 39.5317 26.7506 39.5317 28.2711V29.4536C39.2501 29.3973 38.9123 29.3973 38.3491 29.341C37.8423 29.2847 37.3918 29.2847 36.9976 29.2847C35.984 29.2847 34.9704 29.3973 33.9004 29.5663C32.8868 29.7352 31.9295 30.0731 31.1411 30.5236C30.2964 30.9741 29.6206 31.5935 29.1138 32.3819C28.607 33.1703 28.3254 34.1276 28.3254 35.3102C28.3254 37.1122 28.8322 38.4637 29.9585 39.3647C31.0285 40.2657 32.4363 40.7162 34.1257 40.7162C35.1956 40.7162 36.0966 40.5473 36.9413 40.2094C37.786 39.8715 38.687 39.3084 39.5317 38.6327L40.2075 40.491H41.3337V27.9332C41.3337 26.0749 40.8269 24.6107 39.8696 23.6534C38.9123 22.6398 37.3918 22.1893 35.3646 22.1893C34.2383 22.1893 33.281 22.3019 32.4926 22.4708C31.6479 22.6398 30.8595 22.9213 30.1274 23.2029L30.1838 24.9486ZM45.5009 24.2165H48.4855V35.8733C48.4855 37.619 48.8797 38.8579 49.6117 39.6463C50.4001 40.4347 51.4138 40.7725 52.709 40.7725C53.2721 40.7725 53.8915 40.7162 54.6236 40.5473C55.3557 40.4347 56.144 40.1531 56.9324 39.8152V38.0132C56.313 38.4074 55.6372 38.689 54.8488 38.8579C54.0605 39.0268 53.4973 39.0832 53.0468 39.0832C52.1458 39.0832 51.4701 38.8579 51.0196 38.3511C50.5691 37.8443 50.3438 37.1685 50.3438 36.2675V24.2165H56.0877V22.4145H50.3438V17.1211L48.4855 17.459V22.3582H45.5009V24.2165ZM73.8826 31.8188C73.9389 31.3683 73.9389 30.9178 73.9389 30.5236V29.4536C73.9389 28.44 73.8263 27.4827 73.6011 26.5817C73.3758 25.6807 72.9816 24.8923 72.4748 24.2728C71.968 23.5971 71.2922 23.0903 70.5039 22.6961C69.7155 22.3019 68.7018 22.1329 67.5756 22.1329C66.3367 22.1329 65.2104 22.4145 64.2531 22.9213C63.2958 23.4281 62.5074 24.1039 61.8317 25.0049C61.1559 25.9059 60.6491 26.8632 60.3112 28.0458C59.9733 29.1721 59.8044 30.411 59.8044 31.6498C59.8044 32.945 59.9733 34.1839 60.3112 35.3102C60.6491 36.4364 61.1559 37.3938 61.7753 38.1821C62.4511 39.0268 63.2958 39.59 64.2531 40.0968C65.2667 40.5473 66.393 40.7725 67.6882 40.7725C67.9135 40.7725 68.195 40.7725 68.5892 40.7162C68.9834 40.6599 69.4339 40.6036 69.9407 40.5473C70.4475 40.4347 70.9544 40.322 71.4612 40.1531C71.968 39.9842 72.4748 39.7589 72.869 39.4773V37.619C71.968 38.1258 71.1233 38.4637 70.2786 38.6327C69.4339 38.8016 68.5892 38.9142 67.6882 38.9142C66.7309 38.9142 65.8862 38.7453 65.1541 38.4074C64.4221 38.0695 63.8026 37.5627 63.2958 36.9433C62.789 36.3238 62.3948 35.5917 62.1132 34.6907C61.8317 33.7897 61.6627 32.8887 61.6627 31.8188H73.8826ZM69.6592 24.3292C70.2223 24.6107 70.7291 25.0049 71.0107 25.568C71.3485 26.0749 71.5738 26.6943 71.7427 27.3701C71.9117 28.0458 71.968 28.7779 71.968 29.6226V30.0168H61.888C61.9443 29.2847 62.1132 28.5526 62.3948 27.8206C62.6764 27.0885 63.0142 26.469 63.4647 25.9059C63.9152 25.3428 64.4784 24.836 65.1541 24.4981C65.8299 24.1602 66.562 23.9913 67.463 23.9913C68.364 23.8787 69.096 24.0476 69.6592 24.3292ZM79.345 40.4347H81.2033V27.3701C81.7101 26.469 82.3859 25.737 83.3432 25.0612C84.3005 24.4418 85.3705 24.1039 86.5531 24.1039H87.1725V22.2456C87.0036 22.1893 86.8909 22.1329 86.722 22.1329C86.6094 22.1329 86.4404 22.0766 86.2715 22.0766C85.1452 22.0766 84.1879 22.3582 83.2869 22.9776C82.3859 23.5971 81.7101 24.2728 81.147 25.0612L80.5276 22.3019H79.2887L79.345 40.4347Z" fill="#0055A6"/>
<path d="M126.422 15.9929C132.448 18.8085 137.741 19.6532 142.134 19.5406V4.3361C142.134 1.97095 140.05 0 137.46 0H114.822C112.288 0 110.148 1.97095 110.148 4.3361V12.051C114.709 12.1073 120.172 13.0646 126.422 15.9929Z" fill="#0055A6"/>
<path d="M124.677 42.8524C119.045 40.2057 114.202 39.361 110.148 39.3047V51.8062C110.148 54.1713 112.232 56.1423 114.822 56.1423H137.46C139.994 56.1423 142.134 54.1713 142.134 51.8062V46.738C141.908 46.738 141.683 46.738 141.458 46.738C136.671 46.738 130.984 45.7807 124.677 42.8524Z" fill="#0055A6"/>
<path d="M126.423 19.3168C112.682 12.8971 102.602 15.7128 97.9282 17.8527V22.0198C100.181 20.612 109.979 15.6565 124.677 22.5267C130.984 25.4549 136.672 26.4686 141.458 26.4686C147.484 26.4686 151.989 24.9481 154.635 23.7092V19.5421C152.721 20.781 141.796 26.5249 126.423 19.3168Z" fill="#66B0E1"/>
<path d="M126.423 27.648C112.739 21.2847 102.602 24.044 97.9282 26.2402V30.4074C100.181 28.9996 109.979 24.044 124.677 30.9142C130.984 33.8425 136.672 34.8561 141.458 34.8561C147.484 34.8561 151.989 33.3357 154.635 32.0968V27.9296C152.721 29.1122 141.796 34.8561 126.423 27.648Z" fill="#66B0E1"/>
<path d="M126.423 35.9848C112.682 29.5651 102.602 32.3807 97.9282 34.5206V38.6878C100.181 37.3363 109.979 32.3244 124.677 39.1946C130.984 42.1229 136.672 43.1365 141.458 43.1365C147.484 43.1365 151.989 41.6161 154.635 40.3772V36.21C152.721 37.4489 141.796 43.1365 126.423 35.9848Z" fill="#66B0E1"/>
<path d="M178.062 40.4307H181.103V26.8029C181.891 26.2398 182.679 25.7893 183.411 25.4514C184.2 25.0572 185.045 24.8883 185.946 24.8883C187.072 24.8883 187.917 25.1136 188.536 25.5641C189.155 26.0146 189.437 26.8029 189.437 27.9292V40.4307H192.534V27.2534C192.534 25.4514 192.027 24.1562 191.014 23.3115C190 22.4668 188.592 22.0727 186.79 22.0727C185.833 22.0727 184.763 22.2979 183.637 22.6921C182.51 23.0863 181.441 23.6494 180.427 24.4378C179.526 22.861 177.893 22.129 175.415 22.129C173.5 22.129 171.529 22.8047 169.615 24.2125L168.77 22.4105H166.687V40.487H169.727V26.8593C170.516 26.2961 171.304 25.8456 172.093 25.5077C172.881 25.1136 173.726 24.9446 174.627 24.9446C175.753 24.9446 176.598 25.1699 177.217 25.6204C177.837 26.0709 178.118 26.8593 178.118 27.9855V40.4307H178.062ZM196.251 25.0009H199.01V40.4307H202.051V22.3542H201.77C201.094 22.3542 200.193 22.4105 199.179 22.4668C198.165 22.5232 197.152 22.6358 196.195 22.8047V25.0009H196.251ZM202.107 18.6939C202.502 18.2997 202.671 17.7929 202.671 17.1734C202.671 16.554 202.445 16.0472 202.107 15.653C201.713 15.2588 201.206 15.0898 200.587 15.0898C199.967 15.0898 199.461 15.3151 199.066 15.653C198.672 16.0472 198.503 16.554 198.503 17.1734C198.503 17.7929 198.729 18.2997 199.066 18.6939C199.461 19.0881 199.967 19.257 200.587 19.257C201.206 19.257 201.713 19.0881 202.107 18.6939ZM217.819 39.3607C219.001 38.4597 219.621 37.1082 219.621 35.3062C219.621 34.5178 219.508 33.8984 219.283 33.3352C219.058 32.7721 218.72 32.3216 218.269 31.9837C217.875 31.5895 217.368 31.308 216.805 31.0264C216.242 30.7448 215.679 30.5196 215.059 30.3507L212.582 29.506C211.962 29.2244 211.399 28.9991 210.949 28.6613C210.498 28.3234 210.273 27.8166 210.273 27.1408C210.273 26.6903 210.385 26.2961 210.611 26.0146C210.836 25.733 211.117 25.5077 211.512 25.3388C211.906 25.1699 212.3 25.0572 212.751 24.9446C213.201 24.832 213.708 24.832 214.158 24.832C214.834 24.832 215.623 24.9446 216.524 25.1699C217.425 25.3951 218.269 25.6767 219.17 26.1272V23.3679C218.326 22.9737 217.481 22.6921 216.636 22.4668C215.791 22.2979 214.89 22.2416 213.989 22.2416C213.257 22.2416 212.469 22.2979 211.681 22.4668C210.836 22.6358 210.104 22.861 209.428 23.2552C208.752 23.6494 208.189 24.1562 207.739 24.832C207.288 25.5077 207.063 26.3524 207.063 27.4224C207.063 28.2108 207.232 28.8302 207.457 29.3933C207.739 29.9565 208.077 30.407 208.527 30.8012C208.978 31.1954 209.484 31.4769 209.991 31.7585C210.554 32.0401 211.117 32.209 211.681 32.4342L213.877 33.11C214.721 33.3916 215.397 33.6731 215.904 34.0673C216.411 34.4615 216.636 34.9683 216.636 35.5878C216.636 36.0946 216.524 36.5451 216.298 36.883C216.073 37.2208 215.791 37.5024 215.397 37.7277C215.003 37.9529 214.553 38.0655 214.102 38.1218C213.652 38.2345 213.145 38.2345 212.582 38.2345C211.737 38.2345 210.836 38.0655 209.822 37.784C208.809 37.4461 207.851 37.1082 206.95 36.6014V39.417C207.851 39.9239 208.809 40.2617 209.766 40.487C210.723 40.7122 211.737 40.8249 212.807 40.8249C214.89 40.7122 216.636 40.2617 217.819 39.3607ZM234.093 39.3607C235.276 38.4597 235.895 37.1082 235.895 35.3062C235.895 34.5178 235.783 33.8984 235.557 33.3352C235.332 32.7721 234.994 32.3216 234.544 31.9837C234.149 31.5895 233.643 31.308 233.08 31.0264C232.516 30.7448 231.953 30.5196 231.334 30.3507L228.856 29.506C228.237 29.2244 227.673 28.9991 227.223 28.6613C226.772 28.3234 226.547 27.8166 226.547 27.1408C226.547 26.6903 226.66 26.2961 226.885 26.0146C227.11 25.733 227.392 25.5077 227.786 25.3388C228.18 25.1699 228.574 25.0572 229.025 24.9446C229.476 24.832 229.982 24.832 230.433 24.832C231.109 24.832 231.897 24.9446 232.798 25.1699C233.699 25.3951 234.544 25.6767 235.445 26.1272V23.3679C234.6 22.9737 233.755 22.6921 232.911 22.4668C232.066 22.2979 231.165 22.2416 230.264 22.2416C229.532 22.2416 228.743 22.2979 227.955 22.4668C227.11 22.6358 226.378 22.861 225.703 23.2552C225.027 23.6494 224.464 24.1562 224.013 24.832C223.563 25.5077 223.337 26.3524 223.337 27.4224C223.337 28.2108 223.506 28.8302 223.732 29.3933C224.013 29.9565 224.351 30.407 224.802 30.8012C225.252 31.1954 225.759 31.4769 226.266 31.7585C226.829 32.0401 227.392 32.209 227.955 32.4342L230.151 33.11C230.996 33.3916 231.672 33.6731 232.179 34.0673C232.685 34.4615 232.967 34.9683 232.967 35.5878C232.967 36.0946 232.854 36.5451 232.629 36.883C232.404 37.2208 232.122 37.5024 231.728 37.7277C231.334 37.9529 230.883 38.0655 230.433 38.1218C229.982 38.2345 229.475 38.2345 228.912 38.2345C228.068 38.2345 227.167 38.0655 226.097 37.784C225.083 37.4461 224.126 37.1082 223.225 36.6014V39.417C224.126 39.9239 225.083 40.2617 226.04 40.487C226.998 40.7122 228.011 40.8249 229.081 40.8249C231.165 40.7122 232.854 40.2617 234.093 39.3607ZM238.317 25.0009H241.076V40.4307H244.117V22.3542H243.835C243.16 22.3542 242.259 22.4105 241.245 22.4668C240.231 22.5232 239.218 22.6358 238.26 22.8047L238.317 25.0009ZM244.173 18.6939C244.567 18.2997 244.736 17.7929 244.736 17.1734C244.736 16.554 244.511 16.0472 244.173 15.653C243.779 15.2588 243.272 15.0898 242.653 15.0898C242.033 15.0898 241.526 15.3151 241.132 15.653C240.738 16.0472 240.569 16.554 240.569 17.1734C240.569 17.7929 240.794 18.2997 241.132 18.6939C241.526 19.0881 242.033 19.257 242.653 19.257C243.272 19.257 243.779 19.0881 244.173 18.6939ZM260.842 40.0365C261.855 39.586 262.7 38.9102 263.376 38.1218C264.052 37.2772 264.558 36.3198 264.953 35.1936C265.291 34.0673 265.459 32.7721 265.459 31.4206C265.459 30.0691 265.291 28.7739 265.009 27.5913C264.727 26.4651 264.221 25.4514 263.601 24.663C262.982 23.8184 262.137 23.2552 261.123 22.7484C260.11 22.2979 258.927 22.0727 257.576 22.0727C256.224 22.0727 254.985 22.2979 253.915 22.7484C252.845 23.1989 252.001 23.8184 251.269 24.663C250.537 25.5077 250.03 26.4651 249.636 27.5913C249.298 28.7176 249.129 30.0128 249.129 31.4206C249.129 32.8284 249.298 34.0673 249.636 35.2499C249.973 36.3761 250.48 37.3898 251.156 38.1782C251.832 39.0229 252.676 39.586 253.69 40.0928C254.704 40.5433 255.943 40.7686 257.294 40.7686C258.589 40.7122 259.772 40.487 260.842 40.0365ZM254.985 37.5587C254.31 37.2208 253.746 36.714 253.352 36.1509C252.902 35.5878 252.62 34.8557 252.395 34.0673C252.17 33.2226 252.113 32.3779 252.113 31.4206C252.113 30.4633 252.226 29.6186 252.395 28.7739C252.62 27.9292 252.902 27.2534 253.352 26.6903C253.803 26.1272 254.31 25.6204 254.985 25.2825C255.661 24.9446 256.449 24.7757 257.407 24.7757C258.364 24.7757 259.152 24.9446 259.772 25.2825C260.391 25.6204 260.898 26.1272 261.292 26.6903C261.687 27.2534 261.968 27.9855 262.137 28.7739C262.306 29.6186 262.419 30.4633 262.419 31.4206C262.419 32.3779 262.306 33.2226 262.137 34.0673C261.968 34.912 261.687 35.5878 261.292 36.1509C260.898 36.714 260.391 37.2208 259.772 37.5587C259.152 37.8966 258.364 38.0655 257.407 38.0655C256.449 38.0655 255.661 37.8966 254.985 37.5587ZM281.959 40.4307H285.056V27.2534C285.056 25.4514 284.55 24.1562 283.48 23.3115C282.41 22.4668 281.002 22.0727 279.2 22.0727C278.243 22.0727 277.229 22.2416 276.215 22.5795C275.202 22.9173 274.188 23.4805 273.231 24.1562L272.386 22.3542H270.302V40.4307H273.343V26.8029C274.132 26.2398 274.92 25.7893 275.765 25.4514C276.609 25.0572 277.454 24.8883 278.355 24.8883C279.481 24.8883 280.326 25.1136 281.002 25.5641C281.621 26.0146 281.959 26.8029 281.959 27.9292V40.4307Z" fill="#0055A6"/>
</g>
<defs>
<clipPath id="clip0">
<rect width="285" height="56.144" fill="white"/>
</clipPath>
</defs>
</svg>
