<svg width="285" height="58" viewBox="0 0 285 58" fill="none" xmlns="http://www.w3.org/2000/svg">
<g clip-path="url(#clip0)">
<path d="M84.2309 16.8002C83.9837 16.8002 83.7717 16.9533 83.7011 17.1887L77.8612 36.4745C77.6022 35.5914 72.0802 17.1887 72.0802 17.1887C72.0096 16.9533 71.7976 16.8002 71.5504 16.8002H64.4507C64.1446 16.8002 63.8973 17.0475 63.9091 17.3536C63.9091 17.4125 63.9209 17.4595 63.9326 17.5184L72.6807 45.199C72.7513 45.4227 72.9633 45.5757 73.1987 45.5757H74.8942C74.7882 45.9407 71.6563 56.0663 71.6563 56.0663C71.6093 56.2311 71.6328 56.4195 71.7388 56.5608C71.8447 56.7021 72.0096 56.7727 72.1744 56.7845H78.7678C79.0033 56.7845 79.2152 56.6315 79.2859 56.4077L82.9829 45.2107C82.9829 45.2107 82.9829 45.2107 91.8487 17.5302C91.9428 17.2476 91.7898 16.9297 91.4954 16.8473C91.4366 16.8238 91.3777 16.8238 91.3188 16.8238L84.2309 16.8002ZM93.0143 27.7029V34.6966C93.0143 42.1966 97.3706 46.1526 105.612 46.1526C113.854 46.1526 118.211 42.1848 118.211 34.6966V27.7029C118.211 20.2029 113.854 16.2351 105.612 16.2351C97.3706 16.2351 93.0143 20.2029 93.0143 27.7029ZM101.044 34.9203V27.4792C101.044 24.4768 102.363 23.2523 105.612 23.2523C108.862 23.2523 110.181 24.4768 110.181 27.4792V34.9203C110.181 37.9227 108.862 39.1471 105.612 39.1471C102.375 39.1471 101.044 37.9227 101.044 34.9203ZM138.744 16.8002C138.438 16.8002 138.203 17.0475 138.191 17.3418V36.2154C135.707 37.4635 132.975 38.3347 131.515 38.3347C130.279 38.3347 129.855 37.8991 129.855 36.6628V17.3536C129.855 17.0475 129.608 16.8002 129.302 16.8002H122.367C122.061 16.8002 121.813 17.0475 121.813 17.3418V37.4046C121.813 43.1974 124.097 46.1409 128.619 46.1409C131.68 46.1409 135.777 45.1165 139.356 43.4564C139.427 43.7272 139.863 45.1754 139.863 45.1754C139.933 45.4109 140.145 45.5639 140.393 45.5639H145.679C145.985 45.5639 146.232 45.3167 146.232 45.0106V17.3536C146.232 17.0475 145.985 16.8002 145.679 16.8002H138.744ZM157.83 18.9313C157.759 18.6605 157.324 17.2005 157.324 17.2005C157.253 16.965 157.041 16.812 156.794 16.812H151.507C151.201 16.812 150.954 17.0592 150.954 17.3654V45.0459C150.954 45.352 151.201 45.5993 151.507 45.5993H158.442C158.748 45.5993 158.995 45.352 158.995 45.0459V26.1723C161.468 24.9242 164.2 24.053 165.659 24.053C166.896 24.053 167.331 24.4886 167.331 25.7249V45.0459C167.331 45.352 167.579 45.5993 167.885 45.5993H174.808C175.114 45.5993 175.361 45.352 175.361 45.0577V24.9713C175.361 19.1785 173.077 16.2351 168.568 16.2351C165.506 16.2351 161.409 17.2712 157.83 18.9313ZM178.94 25.9839V28.6095C178.94 31.9297 180.083 34.4376 182.331 36.0741C180.636 37.4635 179.788 38.9941 179.788 40.7719C179.788 44.5161 181.401 46.0938 185.734 46.6001C185.722 46.6001 185.722 46.6001 189.078 46.9768L193.752 47.5066C195.754 47.7304 195.871 47.8952 195.871 49.1785C195.871 50.3324 195.624 50.8387 189.831 50.8387C186.735 50.8269 183.65 50.4266 180.648 49.6613C180.495 49.626 180.342 49.6495 180.212 49.7319C180.083 49.8143 180 49.9439 179.977 50.0969L179.129 55.2774C179.082 55.5482 179.247 55.8073 179.517 55.8897C182.967 56.9611 187.512 57.3379 190.361 57.3379C200.369 57.3379 203.419 55.2892 203.419 48.5428C203.419 43.9627 201.499 41.7963 197.014 41.29L194.776 41.0545L188.995 40.4305C187.948 40.3245 187.948 40.0537 187.948 39.7829C187.948 39.2649 188.43 38.6526 189.219 38.1228C189.325 38.1346 190.644 38.1699 190.644 38.1699C200.298 38.1699 202.335 32.9541 202.335 28.5859V25.9603C202.347 24.6063 202.076 23.2641 201.57 22.0043C201.841 21.9336 204.043 21.3214 204.043 21.3214C204.278 21.2508 204.443 21.0388 204.443 20.7916V17.3183C204.443 17.0121 204.196 16.7649 203.889 16.7649H195.412C193.858 16.3763 192.257 16.188 190.656 16.1997C182.897 16.2351 179.07 19.4258 178.94 25.9839ZM186.57 28.3269V26.2194C186.57 24.1236 187.229 22.8991 190.62 22.8991C194.058 22.8991 194.729 24.1118 194.729 26.2194V28.3269C194.729 30.6935 193.658 31.5294 190.62 31.5294C187.63 31.5176 186.57 30.6935 186.57 28.3269Z" fill="#003F5F"/>
<path d="M8.43014 0.211931C8.28885 0.0706436 8.10047 0 7.90031 0H0.741758C0.32967 0 0 0.32967 0 0.741758V8.64207C0 8.84223 0.0824176 9.03061 0.223705 9.1719C0.223705 9.1719 10.9498 19.8862 12.1154 21.0518V44.2582C12.1154 44.6703 12.4451 45 12.8571 45H23.0534C23.4655 45 23.7951 44.6703 23.7951 44.2582V15.9066C23.7951 15.7064 23.7127 15.5181 23.5714 15.3768L8.43014 0.211931ZM54.9608 38.595L49.8626 33.4969C49.7213 33.3556 49.533 33.2732 49.3328 33.2732H39.949V5.68681C39.949 5.27473 39.6193 4.94506 39.2072 4.94506C39.0071 4.94506 38.8187 5.02747 38.6774 5.16876L28.4812 15.365C28.3399 15.5063 28.2692 15.6947 28.2692 15.8948V44.2229C28.2692 44.635 28.5989 44.9647 29.011 44.9647H49.3328C49.533 44.9647 49.7213 44.8823 49.8626 44.741L54.9608 39.6429C55.2551 39.3603 55.2551 38.8893 54.9608 38.595ZM216.016 4.62716L209.223 9.19545C209.011 9.34851 208.752 9.56044 208.752 9.84301V45.0471C208.752 45.3532 208.999 45.6005 209.305 45.6005H216.24C216.546 45.6005 216.794 45.3532 216.794 45.0471V5.07457C216.794 4.92151 216.723 4.76845 216.605 4.66248C216.44 4.50942 216.193 4.49765 216.016 4.62716ZM223.281 4.87441C222.975 4.87441 222.728 5.12166 222.728 5.42779V13.4458C222.728 13.752 222.975 13.9992 223.281 13.9992H230.216C230.522 13.9992 230.769 13.752 230.769 13.4458V5.41601C230.769 5.10989 230.522 4.87441 230.216 4.86264L223.281 4.87441ZM223.281 16.8014C222.975 16.8014 222.728 17.0487 222.728 17.343V45.0235C222.728 45.3297 222.975 45.5769 223.281 45.5769H230.216C230.522 45.5769 230.769 45.3297 230.769 45.0235V17.3548C230.769 17.0487 230.522 16.8014 230.216 16.8014H223.281ZM239.411 13.4929V16.8014H235.526C235.22 16.8014 234.973 17.0487 234.973 17.343V22.865C234.973 23.1711 235.22 23.4184 235.514 23.4184H239.4V45.0353C239.4 45.3414 239.647 45.5887 239.953 45.5887H246.888C247.194 45.5887 247.441 45.3414 247.441 45.0353V23.4184H253.54C253.823 23.4184 254.07 23.1947 254.093 22.9121L254.494 17.3783C254.494 17.2253 254.447 17.084 254.352 16.978C254.246 16.8721 254.105 16.8014 253.952 16.8014H247.453V13.8933C247.453 11.8681 247.841 11.1499 250.031 11.1499C251.327 11.1735 252.622 11.3148 253.893 11.5973C254.046 11.6327 254.199 11.5973 254.329 11.5149C254.458 11.4325 254.541 11.2912 254.564 11.1381L255.306 5.79278C255.341 5.52198 255.177 5.26295 254.918 5.19231C252.928 4.63893 250.867 4.36813 248.807 4.37991C242.473 4.35636 239.411 7.34694 239.411 13.4929ZM255.954 27.5863V34.9215C255.954 42.5863 259.851 46.1538 268.21 46.1538C271.743 46.1656 275.251 45.5534 278.583 44.3524C278.83 44.2582 278.984 43.9874 278.925 43.7284L277.841 38.5008C277.806 38.3477 277.712 38.2182 277.582 38.1358C277.453 38.0534 277.288 38.0416 277.147 38.0769C274.462 38.9129 271.66 39.3485 268.834 39.3603C264.678 39.3603 263.984 38.0887 263.984 35.2512V34.3799H278.83C279.137 34.3799 279.384 34.1327 279.384 33.8265V27.916C279.384 22.9003 278.195 16.2245 267.975 16.2245C260.11 16.2363 255.954 20.1688 255.954 27.5863ZM263.995 26.9035C263.995 24.219 265.243 23.0181 268.046 23.0181C271.095 23.0181 271.707 24.5016 271.707 26.9035V27.7159H263.995V26.9035ZM282.669 41.5385C283.964 41.5385 285 42.5863 285 43.8697C285 45.1648 283.952 46.2009 282.669 46.2009C281.374 46.2009 280.338 45.1531 280.338 43.8697C280.279 42.6334 281.244 41.5856 282.48 41.5385C282.527 41.5385 282.598 41.5385 282.669 41.5385ZM282.669 45.6947C283.67 45.7064 284.494 44.9058 284.517 43.905C284.541 42.9042 283.728 42.0801 282.728 42.0565C281.727 42.0447 280.903 42.8454 280.879 43.8462C280.879 43.8579 280.879 43.8579 280.879 43.8697C280.808 44.7998 281.503 45.6122 282.433 45.6829C282.504 45.6947 282.586 45.6947 282.669 45.6947ZM282.739 44.1758H282.304V44.8823H281.951V42.7394H282.786C283.257 42.7394 283.458 42.9396 283.458 43.3046V43.5989C283.469 43.8108 283.352 44.0228 283.151 44.1052L283.717 44.8705H283.281L282.739 44.1758ZM282.763 43.0808H282.292V43.8462H282.763C282.998 43.8462 283.069 43.752 283.069 43.5989V43.3399C283.069 43.1397 282.987 43.0808 282.763 43.0808Z" fill="#C1D72F"/>
</g>
<defs>
<clipPath id="clip0">
<rect width="285" height="57.3509" fill="white"/>
</clipPath>
</defs>
</svg>
