<svg width="146" height="72" viewBox="0 0 146 72" fill="none" xmlns="http://www.w3.org/2000/svg">
<path d="M46.2222 72H0V0H46.2222V72ZM1.47177 70.5282H44.765V1.47177H1.47177V70.5282Z" fill="white"/>
<path d="M10.7541 59.2932H13.2022V59.847H10.1421V56.2331H13.0711V56.7869H10.7541V57.6758H12.1384V58.2295H10.7541V59.2932ZM16.2915 57.6175C15.7377 57.5738 15.2131 57.5592 15.2131 57.1657C15.2131 56.7869 15.592 56.6412 16.0292 56.6412C16.6849 56.6412 17.1366 56.8743 17.3406 57.0637L17.7195 56.6266C17.4281 56.3934 16.816 56.102 16.0583 56.102C15.388 56.102 14.6011 56.3497 14.6011 57.2095C14.6011 58.0838 15.5046 58.1566 16.306 58.2004C16.9326 58.2441 17.3552 58.3461 17.3552 58.7978C17.3552 59.2058 16.9326 59.3953 16.3935 59.3953C15.592 59.3953 15.082 59.0018 14.7905 58.7395L14.4117 59.1767C14.8197 59.541 15.4317 59.9344 16.3935 59.9344C17.2532 59.9344 17.9818 59.5993 17.9818 58.7249C17.9527 57.734 16.9326 57.6758 16.2915 57.6175ZM19.0747 56.7869H20.5027V59.847H21.1148V56.7869H22.5282V56.2331H19.0747V56.7869ZM23.5191 59.1184C23.2714 59.1184 23.082 59.2932 23.082 59.5264C23.082 59.745 23.2714 59.9198 23.5191 59.9198C23.7669 59.9198 23.9563 59.745 23.9563 59.5264C23.9563 59.3078 23.7669 59.1184 23.5191 59.1184ZM31.1694 58.1421C31.1694 59.1475 30.2659 59.949 29.2022 59.949C28.1384 59.949 27.2496 59.1475 27.2496 58.1421C27.2496 57.1366 28.1384 56.3351 29.2022 56.3351C30.2659 56.3497 31.1694 57.1512 31.1694 58.1421ZM30.5428 58.1421C30.5428 57.4572 29.9308 56.8889 29.2022 56.8889C28.4736 56.8889 27.8762 57.4572 27.8762 58.1421C27.8762 58.8269 28.4736 59.3953 29.2022 59.3953C29.9308 59.3953 30.5428 58.8415 30.5428 58.1421ZM35.3953 57.9672C35.5556 57.8943 35.7887 57.6466 35.7887 57.2823C35.7887 56.5974 34.9581 56.3351 34.3607 56.3351C33.6466 56.3351 33.0783 56.6994 32.6849 57.0492L33.0638 57.428C33.3843 57.1512 33.8507 56.8889 34.3607 56.8889C34.725 56.8889 35.1767 57.02 35.1767 57.3843C35.1767 57.6466 34.9435 57.7923 34.7395 57.7923H34.0547V58.2878H34.7541C35.0018 58.2878 35.439 58.3606 35.439 58.7249C35.439 59.1475 34.8998 59.3807 34.215 59.3807C33.5301 59.3807 33.0783 59.133 32.7286 58.7978L32.3497 59.235C32.8598 59.7158 33.4718 59.9344 34.215 59.9344C35.235 59.9344 36.051 59.5264 36.051 58.7687C36.051 58.2441 35.643 58.0255 35.3953 57.9672Z" fill="white"/>
<path d="M35.8761 47.0528C35.8761 46.2805 35.8761 44.9836 35.9198 44.6193C35.9344 44.4882 35.8761 44.4445 35.7887 44.4445C35.643 44.4299 35.3515 44.4008 35.2058 44.4008C35.1184 44.4008 35.0309 44.4445 35.0309 44.5756C34.9872 45.1002 34.8124 45.5374 34.6666 45.8288C34.5501 46.0765 34.3898 46.3097 34.1566 46.4408C33.836 46.6303 33.4135 46.6885 32.9909 46.6885C32.8743 46.6885 13.7705 46.6885 13.7705 46.6885C13.3333 46.6885 12.8816 46.6594 12.5027 46.5865C12.0073 46.4991 11.5701 46.2368 11.3807 45.7705C11.2641 45.5082 11.1038 45.0419 11.0164 44.6485C10.9872 44.5319 10.9435 44.4736 10.8415 44.4882C10.7249 44.5173 10.3461 44.5756 10.3461 44.5756C10.2149 44.5902 10.1712 44.6193 10.1712 44.7359C10.2149 45.2314 10.3024 46.3097 10.3024 47.2131C10.3024 47.9855 10.3024 49.2824 10.2586 49.6467C10.2441 49.7778 10.3024 49.8215 10.3898 49.8215C10.5355 49.8361 10.8269 49.8652 10.9727 49.8652C11.0601 49.8652 11.1475 49.8215 11.1475 49.6904C11.1912 49.1658 11.3661 48.714 11.5118 48.4372C11.6284 48.1895 11.7887 47.9563 12.0218 47.8252C12.3424 47.6357 12.765 47.5774 13.1876 47.5774C13.3042 47.5774 32.408 47.5774 32.408 47.5774C32.8452 47.5774 33.2969 47.6066 33.6758 47.6794C34.1712 47.7669 34.6084 48.0292 34.7978 48.4955C34.9144 48.7578 35.0747 49.2241 35.1621 49.6175C35.1912 49.7341 35.235 49.7924 35.337 49.7778C35.4535 49.7487 35.8324 49.6904 35.8324 49.6904C35.9635 49.6612 36.0073 49.6467 36.0073 49.5301C35.9781 49.0346 35.8761 47.9563 35.8761 47.0528Z" fill="white"/>
<path d="M34.2295 31.1257C32.0729 35.3516 29.6102 37.6394 25.7632 37.6394C19.7596 37.6394 15.4463 32.3935 15.4463 24.5975C15.4463 18.2587 18.9581 12.4153 25.4281 12.4153C29.1585 12.4153 32.1603 14.0328 33.4281 18.8416L34.9144 18.5501C34.623 16.0583 34.3169 14.1494 33.9818 11.8179C32.8306 11.5702 29.7851 10.6813 26.3607 10.6813C16.4517 10.6813 9.73407 16.6412 9.73407 25.4427C9.73407 32.1312 14.4262 39.4463 25.3843 39.4463C28.3424 39.4463 32.1166 38.6011 33.2532 38.3388C33.9672 36.9108 35.031 33.6904 35.6138 31.6503L34.2295 31.1257ZM11.1475 25.4572C11.1475 20.2405 13.7705 16.1312 18.1129 13.9162C15.4171 16.5392 14.0328 20.5902 14.0328 24.6121C14.0328 30.266 16.1603 34.7833 19.6284 37.1876C13.8142 35.2496 11.1475 30.3388 11.1475 25.4572Z" fill="white"/>
<path d="M72.0146 19.0601C70.9654 20.1093 69.3042 21.1002 67.1767 21.1002C63.9417 21.1002 61.8142 18.7687 61.8142 15.8835C61.8142 13.0419 63.9563 10.6813 67.1038 10.6813C68.8962 10.6813 70.6011 11.3807 71.694 12.4153L70.5574 13.5374C69.6831 12.7068 68.3279 12.1822 67.133 12.1822C64.9909 12.1822 63.592 13.858 63.592 15.898C63.592 17.9381 65.02 19.5993 67.2058 19.5993C68.7359 19.5993 70.0474 18.8416 70.8925 17.9527L72.0146 19.0601Z" fill="white"/>
<path d="M79.694 11.0018V19.3078H85.7122V20.8088H78.0037V11.0018H79.694Z" fill="white"/>
<path d="M94.7177 11.0018H96.2478L100.794 20.8088H98.9436L97.7632 18.1712H93.0856L91.9199 20.8088H90.1567L94.7177 11.0018ZM93.6831 16.816H97.1512L95.4754 13.0128H95.388L93.6831 16.816Z" fill="white"/>
<path d="M106.608 20.8088V11.0018H112.015C113.326 11.0018 114.23 11.3661 114.856 12.0364C115.352 12.561 115.643 13.2605 115.643 14.0037C115.643 15.3297 114.769 16.3352 113.486 16.816L115.832 20.8088H113.894L111.796 17.0346H108.313V20.8088H106.608V20.8088ZM108.299 12.5027V15.5337H112.321C113.209 15.5337 113.953 14.8488 113.953 14.0037C113.953 13.6248 113.807 13.3042 113.545 13.0273C113.078 12.5465 112.539 12.5027 112.015 12.5027H108.299Z" fill="white"/>
<path d="M123.818 15.8543L128.947 11.0018H131.031L127.024 14.7614L131.905 20.8088H129.734L125.8 15.8834L123.818 17.7341V20.8088H122.142V11.0018H123.818V15.8543V15.8543Z" fill="white"/>
<path d="M142.849 16.4372H139.075V19.3078H145.72V20.8088H137.399V11.0018H145.355V12.5027H139.075V14.9363H142.849V16.4372Z" fill="white"/>
<path d="M62.674 41.1512V31.3443H67.3807C69.1585 31.3443 70.1494 31.8397 70.98 32.6558C71.8543 33.5592 72.3206 34.8124 72.3206 36.2405C72.3206 37.7122 71.8106 39.0529 70.878 39.9563C70.0328 40.7141 69.1439 41.1512 67.3807 41.1512H62.674V41.1512ZM67.3078 39.6503C68.561 39.6503 68.969 39.3589 69.5665 38.878C70.1931 38.2514 70.5719 37.2897 70.5719 36.2405C70.5719 35.2204 70.2368 34.3024 69.6248 33.6758C69.071 33.1658 68.5464 32.8452 67.3078 32.8452H64.3643V39.6503H67.3078Z" fill="white"/>
<path d="M84.1384 36.7796H80.3643V39.6503H87.0091V41.1512H78.6885V31.3443H86.6448V32.8452H80.3643V35.2787H84.1384V36.7796Z" fill="white"/>
<path d="M100.109 33.6466C99.5702 33.1512 98.3461 32.51 96.5538 32.51C95.388 32.51 94.3388 32.8889 94.3388 33.9235C94.3388 34.9872 95.796 35.031 97.2824 35.1475C99.0456 35.2641 101.8 35.4535 101.8 38.1785C101.8 40.5537 99.8179 41.4718 97.4718 41.4718C94.8926 41.4718 93.2022 40.408 92.1093 39.4171L93.1294 38.2514C93.9308 38.9654 95.3006 40.0291 97.5009 40.0291C98.9581 40.0291 100.109 39.5337 100.109 38.4262C100.109 37.1876 98.9873 36.9399 97.2678 36.8087C95.1111 36.663 92.6339 36.4736 92.6339 34.0984C92.6339 31.7669 94.776 31.082 96.5829 31.082C98.6521 31.082 100.328 31.898 101.1 32.51L100.109 33.6466Z" fill="white"/>
<path d="M107.978 41.1512V31.3443H109.654V41.1512H107.978Z" fill="white"/>
<path d="M124.678 33.8652C123.847 33.0346 122.448 32.5392 121.297 32.5392C119.184 32.5392 117.698 34.215 117.698 36.255C117.698 38.1494 118.995 39.9563 121.472 39.9563C122.492 39.9563 123.701 39.6503 124.357 39.1548V37.1876H121.282V35.6867H125.902V39.9854C124.663 40.8889 122.929 41.4572 121.384 41.4572C118.281 41.4572 115.964 39.1257 115.964 36.2405C115.964 33.3552 118.31 31.0383 121.311 31.0383C122.871 31.0383 124.546 31.6649 125.872 32.816L124.678 33.8652Z" fill="white"/>
<path d="M141.508 31.3443V41.1512H140.022L134.353 34.3461V41.1512H132.678V31.3443H134.164L139.832 38.1494H139.847V31.3443H141.508V31.3443Z" fill="white"/>
<path d="M70.5573 54.2077C69.7267 53.3771 68.3278 52.8816 67.1767 52.8816C65.0637 52.8816 63.5774 54.5574 63.5774 56.5975C63.5774 58.4918 64.8743 60.2988 67.3515 60.2988C68.3716 60.2988 69.581 59.9928 70.2368 59.4973V57.5301H67.1621V56.0292H71.7814V60.3279C70.5428 61.2314 68.8087 61.7997 67.2641 61.7997C64.1603 61.7997 61.8433 59.4682 61.8433 56.5829C61.8433 53.6977 64.1894 51.3807 67.1912 51.3807C68.7504 51.3807 70.4262 52.0073 71.7522 53.1585L70.5573 54.2077Z" fill="white"/>
<path d="M78.5283 61.5082V51.7012H83.9345C85.2459 51.7012 86.1494 52.0655 86.776 52.7358C87.2714 53.2604 87.5629 53.9599 87.5629 54.7031C87.5629 56.0291 86.6885 57.0346 85.4062 57.5154L87.7523 61.5082H85.8142L83.7159 57.734H80.2332V61.5082H78.5283ZM80.2186 53.1876V56.2185H84.2405C85.1293 56.2185 85.8725 55.5337 85.8725 54.6885C85.8725 54.3096 85.7268 53.989 85.4645 53.7122C84.9982 53.2313 84.459 53.1876 83.9345 53.1876H80.2186Z" fill="white"/>
<path d="M98.6958 51.3954C101.785 51.3954 104.248 53.7123 104.248 56.583C104.248 59.4974 101.785 61.8143 98.6958 61.8143C95.6066 61.8143 93.1876 59.4974 93.1876 56.583C93.1731 53.6978 95.592 51.3954 98.6958 51.3954ZM98.6958 60.2988C100.809 60.2988 102.485 58.6231 102.485 56.5684C102.485 54.5429 100.823 52.8817 98.6958 52.8817C96.5975 52.8817 94.9508 54.5284 94.9508 56.5684C94.9508 58.6231 96.5829 60.2988 98.6958 60.2988Z" fill="white"/>
<path d="M119.024 51.6868V58.011C119.024 60.4299 117.158 61.7997 114.667 61.7997C112.189 61.7997 110.324 60.4299 110.324 58.011V51.6868H112V58.011C112 59.4828 113.166 60.2988 114.652 60.2988C116.153 60.2988 117.333 59.4828 117.333 58.011V51.6868H119.024Z" fill="white"/>
<path d="M125.974 61.5082V51.7012H131.381C132.765 51.7012 133.625 52.0947 134.222 52.7358C134.747 53.3041 135.009 53.989 135.009 54.7031C135.009 55.5482 134.659 56.2768 134.106 56.816C133.523 57.3697 132.692 57.734 131.381 57.734H127.65V61.5082H125.974ZM127.665 53.1876V56.2185H131.395C131.818 56.2185 132.401 56.1894 132.882 55.7377C133.173 55.4608 133.333 55.0965 133.333 54.7031C133.333 54.3096 133.188 53.989 132.925 53.7122C132.474 53.2313 131.876 53.1876 131.395 53.1876H127.665V53.1876Z" fill="white"/>
</svg>
