<svg xmlns="http://www.w3.org/2000/svg" width="8" height="12" viewBox="0 0 8 12"><g id="Layer_2" data-name="Layer 2"><g id="Layer_1-2" data-name="Layer 1"><path id="linecap-white-R" d="M0,5a13.67,13.67,0,0,0,2.79-.22,3.32,3.32,0,0,0,2.5-1.91A20.73,20.73,0,0,0,6.09.36C6.18.11,6.26,0,6.4,0h.1l1.1.2c.3.05.4.1.4.35-.1,1.11-.3,3.52-.3,5.52,0,1.31,0,4.62.1,5.42,0,.3-.1.4-.3.4L6.19,12a.37.37,0,0,1-.4-.4A7.38,7.38,0,0,0,5,8.92a2.79,2.79,0,0,0-2.31-1.8A7.92,7.92,0,0,0,1.18,7H0" style="fill:#ffffff"/></g></g></svg>