<svg xmlns="http://www.w3.org/2000/svg" width="620.45" height="200" viewBox="0 0 620.45 200"><g id="Layer_2" data-name="Layer 2"><g id="variations"><g id="cdg-logo-white"><path d="M96.29,199.34V174.05h11.23c4.73,0,7.36,1.36,9.65,3.53A13.54,13.54,0,0,1,117,196c-2.32,2.09-4.72,3.33-9.45,3.33Zm11.12-3c3.64,0,5.15-.93,6.93-2.44a10.19,10.19,0,0,0,2.83-7.24,10,10,0,0,0-2.72-7.09c-1.74-1.59-3.44-2.56-7-2.56H99.66v19.33Z" style="fill:#fff"/><path d="M151.23,187.53H141v8.83h17.86v3H137.63V174.05H158v3H141v7.52h10.23Z" style="fill:#fff"/><path d="M193.11,179.39a14.24,14.24,0,0,0-9.37-3.13c-3.26,0-6.59,1.16-6.59,4.33s4.18,3.41,8.3,3.65c4.41.31,11.54.73,11.54,7.51,0,5.89-5.23,8.25-11.31,8.25a18.87,18.87,0,0,1-13.3-5.19l2.07-2.32a16,16,0,0,0,11.3,4.65c4.3,0,7.86-1.55,7.86-5,0-3.8-3.87-4.38-8.16-4.69-5.47-.35-11.67-.74-11.67-6.58s5.54-7.52,10.08-7.52a18.45,18.45,0,0,1,11.26,3.68Z" style="fill:#fff"/><path d="M213.5,199.34V174.05h3.37v25.29Z" style="fill:#fff"/><path d="M256.54,179.74a13.88,13.88,0,0,0-9-3.37,10.2,10.2,0,0,0-10.38,10.35c0,5.42,4,10.3,10.69,10.3a13.89,13.89,0,0,0,8.17-2.48v-6h-8.21v-3h11.27v10.62A19.47,19.47,0,0,1,247.67,200c-7.94,0-14-6-14-13.32s6.12-13.29,13.87-13.29a17.81,17.81,0,0,1,11.35,4.26Z" style="fill:#fff"/><path d="M299.62,174.05v25.29h-3.06l-16.07-19.4h0v19.4h-3.37V174.05h3.06l16.07,19.4h0v-19.4Z" style="fill:#fff"/><path d="M357.7,179.74a13.84,13.84,0,0,0-9-3.37,10.2,10.2,0,0,0-10.38,10.35c0,5.42,4,10.3,10.69,10.3a13.89,13.89,0,0,0,8.17-2.48v-6H349v-3h11.27v10.62A19.49,19.49,0,0,1,348.84,200c-7.95,0-14-6-14-13.32s6.12-13.29,13.86-13.29A17.81,17.81,0,0,1,360,177.65Z" style="fill:#fff"/><path d="M378.25,199.34V174.05H392.2c3.25,0,5.5.89,7.08,2.56a7.08,7.08,0,0,1,1.94,4.95c0,3.41-2.33,6.08-5.89,7.05l6.24,10.73h-3.84L391.92,189h-10.3v10.3ZM381.62,177v9h11.43a4.65,4.65,0,0,0,4.84-4.53,4.33,4.33,0,0,0-1.2-2.95A5.88,5.88,0,0,0,392.2,177Z" style="fill:#fff"/><path d="M430.28,173.39c7.83,0,14.1,5.93,14.1,13.25S438.11,200,430.28,200s-14-5.93-14-13.36S422.42,173.39,430.28,173.39Zm0,23.63a10.33,10.33,0,1,0,0-20.65,10.33,10.33,0,1,0,0,20.65Z" style="fill:#fff"/><path d="M482.9,174.05v16.3c0,6.17-4.76,9.65-11.16,9.65s-11.07-3.48-11.07-9.65v-16.3H464v16.3c0,4.31,3.41,6.67,7.75,6.67s7.79-2.36,7.79-6.67v-16.3Z" style="fill:#fff"/><path d="M501.47,199.34V174.05h13.67c3.29,0,5.5.89,7.08,2.56a7.17,7.17,0,0,1-.3,10.11c-1.51,1.47-3.64,2.32-6.78,2.32h-10.3v10.3ZM504.84,177v9h10.3a6,6,0,0,0,4.34-1.44,4.3,4.3,0,0,0,1.35-3.09,4.24,4.24,0,0,0-1.2-2.95,5.77,5.77,0,0,0-4.49-1.55Z" style="fill:#fff"/><path d="M619.75,130.53c0-3,0-10.67.24-12.52.12-.7-.24-.93-.69-.93l-3-.23a.85.85,0,0,0-.93.93,18.58,18.58,0,0,1-1.85,6.49c-1.39,2.78-2.78,3.71-5.33,4.18a22.71,22.71,0,0,1-2.77.27H18.61c-2.27-.11-4.57-.28-6.56-.51A7,7,0,0,1,6.26,124a46.26,46.26,0,0,1-1.85-5.8c-.2-.58-.4-.84-.72-.84l-.22,0-2.54.47c-.7.11-.93.23-.93.81.23,2.55.69,8.11.69,12.75,0,3,0,10.67-.23,12.52-.11.7.23.93.7.93l3,.24a.86.86,0,0,0,.93-.94A18.64,18.64,0,0,1,7,137.72c1.39-2.78,2.79-3.71,5.34-4.17a21.38,21.38,0,0,1,2.74-.28H601.84c2.26.12,4.57.29,6.56.51a7.07,7.07,0,0,1,5.79,4.17,49.73,49.73,0,0,1,1.86,5.8c.19.58.39.84.72.84l.21,0,2.54-.47c.7-.11.93-.22.93-.8C620.22,140.73,619.75,135.17,619.75,130.53Z" style="fill:#fff"/><path d="M31.73,10.93c-7.42,8-11.22,19.71-11.22,31.34,0,16.53,5.95,29.92,15.71,37.51C19.87,73.5,12.36,59.12,12.36,44.84c0-15.08,7.23-27.05,19.37-33.91M58.31,0C28.29,0,7.8,18.17,7.8,44.84,7.8,65.33,22,87.62,55.48,87.62c8.88,0,20.36-2.58,23.83-3.35,2.2-4.38,5.54-14.17,7.22-20.36l-4.25-1.67c-6.44,12.88-14,19.84-25.64,19.84-18.3,0-31.57-16-31.57-39.81,0-19.21,10.69-37,30.41-37,11.46,0,20.61,4.9,24.48,19.59L84.34,24c-.77-7.6-1.67-13.4-2.83-20.49C78,2.7,68.75,0,58.31,0Z" style="fill:#fff"/><path d="M140.72,6.49c-1.67,2.54-2.18,6.35-2.18,12.19V69.32c0,4.16,0,8.73,2.66,11.81H130.36c1.72-2.5,2.36-6.3,2.36-12.2V18.68c0-5.84-.52-9.65-2.2-12.19h10.2m13.46-4.56H116.94V6.05c10.18.91,11.21,1.68,11.21,12.63V68.93c0,11-1.16,11.73-12.24,12.63v4.13H177c1.16-3.61,3.74-16.24,4.76-21.27l-4.38-1.15c-2.19,6.31-4.5,10.43-7,13-3,3.48-7.48,4.25-13.66,4.25-4.51,0-8.25-.26-10.56-1.28-2.58-1.17-3.1-3.61-3.1-9.93V18.68C143.1,7.6,144.26,7,154.18,6.05V1.93Z" style="fill:#fff"/><path d="M254.52,6.19c1.93,5.35,3.86,10.74,5.79,16.13,5.58,15.57,11.35,31.66,17.17,47.06,2.06,5.51,3.76,9.22,6,11.75H272.15c1.68-2.91.93-6.08-.12-9-1.35-4-20.39-58.69-20.39-58.69l2.88-7.25M257.14,0l-5.67,1.55L224.92,68.16c-4.37,11.09-6,12.37-14.43,13.4v4.13H239V81.56c-9.41-1.15-10.05-2.7-7.86-9.66,1.55-5.15,3.35-10.18,5-14.82h25.65c2.32,6.19,4.51,12.24,5.92,16.49,1.94,5.42,1,6.84-6.7,8v4.13h34.92V81.56c-8.25-.9-9.92-2.45-14.17-13.78C273.37,45.61,265.26,22.42,257.14,0ZM238.2,50.77c3.6-9.67,7.08-19.72,11-29.64h.26l10.31,29.64Z" style="fill:#fff"/><path d="M348.71,6.49a14.1,14.1,0,0,0-1.16,6.65V68.93c0,5.8.57,9.63,2.35,12.2H339.6c1.79-2.57,2.38-6.4,2.38-12.2V18.55c0-5.72-.57-9.51-2.28-12.06h9m25.15,1a18.88,18.88,0,0,1,7,2.86c4.39,3,6.62,7.46,6.62,13.35,0,6.86-3.37,12-10.28,15.71,2.3-3.76,3.42-8.32,3.42-13.77,0-8.59-2.78-14.44-6.77-18.15m-2.79,38.35.69,1.35c2.24,4.35,7.36,13,11.18,18.81,4.53,7,7.41,11.15,10.52,14.4.4.43.78.84,1.18,1.22-8.3-1.21-11.22-4.19-14.89-9.65-2.62-4-5.39-9-8.08-13.79q-1.55-2.8-3.13-5.6a17.85,17.85,0,0,0-3.3-4.23,18.57,18.57,0,0,0,5.83-2.51M361.25,1.93H326.72V6.05c9.54.91,10.7,1.94,10.7,12.5V68.93c0,10.7-1.29,11.73-11.21,12.63v4.13h37V81.56c-9.92-.9-11.08-1.93-11.08-12.63V49.48h3c5.16,0,7.34,1.67,9.54,5.41,3.73,6.57,7.6,13.92,11.33,19.58,5.55,8.25,10.57,11.6,24.48,12.25,1.55,0,3,.13,4,.13L405.2,83c-3-.9-5.42-2.45-8.38-5.67-2.84-3-5.54-6.83-10.05-13.79-3.87-5.93-8.89-14.43-11-18.42,9-3.74,16.24-10.18,16.24-21.4,0-8-3.48-13.65-8.63-17.13S372,1.93,361.25,1.93Zm-9.14,42.78V13.14c0-3,.26-4.38,1.16-5.15s2.83-1.29,6.31-1.29c8.12,0,16.5,5,16.5,18.94,0,6.7-1.94,11.86-6.45,15.59-3.09,2.58-7.35,3.48-13.14,3.48Z" style="fill:#fff"/><path d="M456,6.49c-1.65,2.58-2.15,6.47-2.15,12.45V68.68c0,6,.56,9.86,2.34,12.45H446c1.72-2.59,2.25-6.49,2.25-12.45V18.94c0-6-.55-9.85-2.3-12.45h10m14.22,32.3c10.35,14.55,23.08,30.1,28.14,36.2a52.83,52.83,0,0,0,6,6.14h-9.45c-6.68-8.48-16.55-21.54-26.27-34.79a21.81,21.81,0,0,0-3.28-3.59,39.73,39.73,0,0,0,4.88-4M514.47,1.93h-32.6V6.05l2.57.39c5.93.77,6.19,2.45,2.83,6.57A200.9,200.9,0,0,1,468,34.66c-3.87,3.74-6.83,5.67-9.54,6.44V18.94c0-11.21,1-12,10.57-12.89V1.93H432.64V6.05c9.92.91,11.09,1.68,11.09,12.89V68.68c0,11.08-1.17,12-10.7,12.88v4.13h36.72V81.56c-10.18-.9-11.34-1.8-11.34-12.88V45a6.61,6.61,0,0,1,.76,0c1.74,0,3.33.9,5.82,4.17,9.91,13.53,20.61,27.7,27.7,36.6H516.4V81.56c-5.54-.77-8.64-2.57-14.56-9.53-8.25-9.93-19.46-24-28.22-36.34,6.83-7.08,13.65-14.17,20.23-20.36,7.47-6.95,12-8.37,20.62-9.28V1.93Z" style="fill:#fff"/><path d="M567.24,6.49a13.3,13.3,0,0,0-.77,5V68.55c0,4.71.27,9.47,3,12.58H558.19c1.78-2.51,2.46-6.32,2.46-12.2V18.81c0-5.87-.52-9.74-2.16-12.32h8.75m37.68-4.56H545.39V6.05c9.54.78,10.7,1.42,10.7,12.76V68.93c0,10.83-1.16,11.73-12.37,12.63v4.13h64.42c1.17-3.87,3.74-15.73,4.51-21l-4.25-.77c-2.19,5.41-4.51,9.66-6.95,12.37-3,3.35-7.09,4.25-15,4.25-5.41,0-9.93-.12-12.37-1.42S571,74.73,571,68.55V45.61h10.06c11.07,0,12.5.65,14.17,9.8h4.25V29.9h-4.25c-1.67,9-3,9.79-14.3,9.79H571V11.47c0-4.13.39-4.38,4.9-4.38h7.6c8,0,11.47.9,13.53,3.47s3.61,6.19,4.77,11.09l4.38-.65c-.51-7.6-1.16-16.49-1.29-19.07Z" style="fill:#fff"/></g></g></g></svg>