<svg xmlns="http://www.w3.org/2000/svg" width="617.35" height="199" viewBox="0 0 617.35 199"><g id="Layer_2" data-name="Layer 2"><g id="variations"><g id="cdg-logo-green"><path d="M95.81,198.34V173.18H107c4.71,0,7.33,1.35,9.6,3.51a13.47,13.47,0,0,1-.19,18.34c-2.31,2.08-4.7,3.31-9.41,3.31Zm11.06-3c3.62,0,5.12-.93,6.9-2.43a10.13,10.13,0,0,0,2.81-7.2,10,10,0,0,0-2.7-7.06c-1.73-1.58-3.43-2.55-7-2.55H99.16v19.24Z" style="fill:#7f866e"/><path d="M150.47,186.59H140.29v8.79h17.78v3H136.94V173.18h20.24v3H140.29v7.49h10.18Z" style="fill:#7f866e"/><path d="M192.15,178.5a14.16,14.16,0,0,0-9.33-3.12c-3.24,0-6.55,1.15-6.55,4.31s4.16,3.39,8.25,3.63c4.39.31,11.48.73,11.48,7.47,0,5.86-5.2,8.21-11.25,8.21a18.76,18.76,0,0,1-13.23-5.16l2-2.31a15.93,15.93,0,0,0,11.25,4.62c4.28,0,7.83-1.54,7.83-4.94,0-3.77-3.86-4.35-8.13-4.66-5.44-.34-11.61-.73-11.61-6.55s5.52-7.48,10-7.48a18.4,18.4,0,0,1,11.21,3.66Z" style="fill:#7f866e"/><path d="M212.43,198.34V173.18h3.35v25.16Z" style="fill:#7f866e"/><path d="M255.26,178.84a13.81,13.81,0,0,0-8.95-3.35A10.15,10.15,0,0,0,236,185.78c0,5.4,4,10.26,10.64,10.26a13.83,13.83,0,0,0,8.13-2.47v-6h-8.17v-3H257.8v10.55A19.33,19.33,0,0,1,246.43,199c-7.9,0-14-5.93-14-13.25s6.1-13.23,13.81-13.23a17.76,17.76,0,0,1,11.29,4.24Z" style="fill:#7f866e"/><path d="M298.13,173.18v25.16h-3.05l-16-19.3h0v19.3H275.7V173.18h3l16,19.31h0V173.18Z" style="fill:#7f866e"/><path d="M355.91,178.84a13.76,13.76,0,0,0-8.93-3.35,10.15,10.15,0,0,0-10.33,10.29c0,5.4,4,10.26,10.63,10.26a13.89,13.89,0,0,0,8.14-2.47v-6h-8.17v-3h11.21v10.55A19.31,19.31,0,0,1,347.09,199c-7.9,0-13.95-5.93-13.95-13.25s6.09-13.23,13.8-13.23a17.76,17.76,0,0,1,11.29,4.24Z" style="fill:#7f866e"/><path d="M376.36,198.34V173.18h13.87c3.24,0,5.48.89,7,2.54a7.06,7.06,0,0,1,1.94,4.94c0,3.39-2.32,6-5.87,7l6.21,10.67h-3.82L390,188.09H379.71v10.25Zm3.35-22.2v9h11.37a4.62,4.62,0,0,0,4.82-4.51,4.28,4.28,0,0,0-1.19-2.93,5.86,5.86,0,0,0-4.48-1.55Z" style="fill:#7f866e"/><path d="M428.13,172.52c7.79,0,14,5.9,14,13.19s-6.24,13.29-14,13.29-13.95-5.9-13.95-13.29S420.31,172.52,428.13,172.52Zm0,23.52a10.28,10.28,0,1,0,0-20.55,10.28,10.28,0,1,0,0,20.55Z" style="fill:#7f866e"/><path d="M480.49,173.18V189.4c0,6.13-4.74,9.6-11.11,9.6s-11-3.47-11-9.6V173.18h3.31V189.4c0,4.28,3.4,6.64,7.71,6.64s7.75-2.36,7.75-6.64V173.18Z" style="fill:#7f866e"/><path d="M499,198.34V173.18h13.61c3.27,0,5.47.89,7,2.54a7.13,7.13,0,0,1-.3,10.06c-1.51,1.47-3.62,2.31-6.74,2.31H502.31v10.25Zm3.35-22.2v9h10.26a5.89,5.89,0,0,0,4.31-1.43,4.2,4.2,0,0,0,.16-6,5.75,5.75,0,0,0-4.47-1.55Z" style="fill:#7f866e"/><path d="M616.66,129.88c0-3,0-10.62.23-12.46.12-.69-.23-.92-.69-.92l-3-.23a.84.84,0,0,0-.92.92,18.47,18.47,0,0,1-1.85,6.46c-1.38,2.77-2.77,3.69-5.3,4.15a19,19,0,0,1-2.76.27H18.52c-2.26-.11-4.55-.27-6.53-.5a7,7,0,0,1-5.76-4.15,49.22,49.22,0,0,1-1.85-5.77c-.19-.58-.39-.83-.71-.83a.82.82,0,0,0-.21,0l-2.54.46c-.69.11-.92.22-.92.81.23,2.53.69,8.07.69,12.68,0,3,0,10.62-.23,12.46-.11.69.23.92.69.92l3,.24a.86.86,0,0,0,.93-.93A18.35,18.35,0,0,1,6.92,137c1.38-2.77,2.77-3.7,5.3-4.16a20.15,20.15,0,0,1,2.74-.27H598.83c2.25.11,4.54.28,6.52.5a7,7,0,0,1,5.77,4.15A49.22,49.22,0,0,1,613,143c.19.58.39.84.72.84l.2,0,2.54-.47c.69-.11.92-.22.92-.8C617.12,140,616.66,134.49,616.66,129.88Z" style="fill:#7f866e"/><path d="M31.57,10.88c-7.38,8-11.17,19.61-11.17,31.17,0,16.46,5.93,29.77,15.64,37.33C19.78,73.13,12.3,58.82,12.3,44.61c0-15,7.19-26.91,19.27-33.73M58,0C28.15,0,7.76,18.08,7.76,44.61,7.76,65,21.87,87.18,55.2,87.18c8.84,0,20.26-2.56,23.72-3.33,2.18-4.36,5.51-14.1,7.18-20.26l-4.23-1.67c-6.41,12.83-14,19.75-25.52,19.75-18.2,0-31.41-15.9-31.41-39.62C24.94,23,35.58,5.26,55.2,5.26c11.41,0,20.51,4.87,24.36,19.48l4.36-.9c-.77-7.56-1.67-13.33-2.82-20.38C77.63,2.69,68.4,0,58,0Z" style="fill:#7f866e"/><path d="M140,6.46c-1.67,2.53-2.17,6.32-2.17,12.13V69c0,4.14,0,8.69,2.65,11.75H129.71c1.71-2.49,2.34-6.26,2.34-12.13v-50c0-5.81-.51-9.6-2.18-12.13H140m13.39-4.54h-37V6c10.13.9,11.15,1.67,11.15,12.57v50c0,10.9-1.15,11.67-12.18,12.57v4.1h60.78c1.15-3.59,3.71-16.16,4.74-21.16L176.49,63c-2.18,6.28-4.49,10.38-6.92,13-3,3.46-7.44,4.23-13.59,4.23-4.49,0-8.21-.26-10.52-1.28-2.56-1.16-3.08-3.59-3.08-9.88V18.59c0-11,1.16-11.67,11-12.57V1.92Z" style="fill:#7f866e"/><path d="M253.25,6.16q2.88,8,5.76,16.05C264.56,37.7,270.3,53.71,276.09,69c2.05,5.48,3.74,9.18,6,11.69H270.79c1.67-2.89.92-6-.12-9-1.34-4-20.29-58.39-20.29-58.39l2.87-7.22M255.85,0l-5.64,1.54L223.8,67.82c-4.36,11-6,12.31-14.36,13.34v4.1h28.34v-4.1c-9.36-1.16-10-2.7-7.83-9.62,1.54-5.13,3.34-10.13,5-14.75h25.52C262.78,63,265,69,266.37,73.2c1.92,5.39,1,6.8-6.67,8v4.1h34.74v-4.1c-8.2-.9-9.87-2.44-14.1-13.72C272,45.38,263.93,22.31,255.85,0ZM237,50.52c3.59-9.62,7.06-19.62,10.9-29.5h.26l10.26,29.5Z" style="fill:#7f866e"/><path d="M347,6.46a13.93,13.93,0,0,0-1.16,6.62V68.59c0,5.77.57,9.58,2.34,12.13H337.9c1.78-2.55,2.37-6.36,2.37-12.13V18.46c0-5.69-.56-9.47-2.27-12h9m25,1a18.67,18.67,0,0,1,7,2.85c4.37,2.95,6.59,7.42,6.59,13.29,0,6.82-3.36,12-10.23,15.62,2.29-3.74,3.41-8.27,3.41-13.7C378.73,17,376,11.14,372,7.45m-2.78,38.16L369.9,47c2.23,4.33,7.33,12.91,11.13,18.72,4.5,7,7.37,11.09,10.46,14.32.4.43.78.84,1.17,1.22-8.26-1.2-11.15-4.17-14.81-9.6-2.61-4-5.36-8.92-8-13.72-1-1.86-2.07-3.72-3.12-5.57a18,18,0,0,0-3.29-4.21,18.61,18.61,0,0,0,5.8-2.5M359.45,1.92H325.09V6c9.49.9,10.64,1.93,10.64,12.44V68.59c0,10.64-1.28,11.67-11.16,12.57v4.1h36.8v-4.1c-9.87-.9-11-1.93-11-12.57V49.23h2.94c5.14,0,7.31,1.67,9.5,5.39,3.71,6.53,7.56,13.84,11.27,19.48,5.52,8.21,10.52,11.54,24.36,12.18,1.54,0,2.95.13,4,.13l.77-3.84c-2.95-.9-5.39-2.44-8.33-5.65-2.83-3-5.52-6.79-10-13.72C381,57.31,376,48.85,373.93,44.87c9-3.72,16.16-10.12,16.16-21.28,0-7.95-3.46-13.59-8.59-17s-11.41-4.62-22.05-4.62Zm-9.1,42.57V13.08c0-2.95.25-4.36,1.15-5.13s2.82-1.29,6.29-1.29c8.07,0,16.4,5,16.4,18.85,0,6.67-1.92,11.8-6.41,15.51-3.08,2.57-7.31,3.47-13.07,3.47Z" style="fill:#7f866e"/><path d="M453.72,6.46c-1.64,2.57-2.14,6.43-2.14,12.39V68.33c0,5.93.56,9.81,2.33,12.39H443.8c1.71-2.58,2.24-6.46,2.24-12.39V18.85c0-5.93-.55-9.81-2.29-12.39h10M467.87,38.6c10.3,14.48,23,29.95,28,36a51.52,51.52,0,0,0,5.95,6.11h-9.4c-6.66-8.43-16.47-21.43-26.14-34.61A21.19,21.19,0,0,0,463,42.54a40.1,40.1,0,0,0,4.86-3.94m44-36.68H479.46V6l2.56.39c5.9.77,6.15,2.44,2.82,6.54a201.2,201.2,0,0,1-19.23,21.54c-3.85,3.72-6.79,5.64-9.49,6.41v-22c0-11.16,1-11.93,10.52-12.83V1.92H430.48V6c9.87.9,11,1.67,11,12.83V68.33c0,11-1.16,11.93-10.65,12.83v4.1H467.4v-4.1c-10.13-.9-11.28-1.8-11.28-12.83V44.74a6.59,6.59,0,0,1,.75-.05c1.74,0,3.32.9,5.79,4.16,9.87,13.46,20.51,27.56,27.56,36.41h23.59v-4.1c-5.51-.78-8.58-2.57-14.48-9.49-8.2-9.88-19.36-23.85-28.08-36.16,6.8-7,13.59-14.1,20.13-20.25C498.82,8.33,503.3,6.92,511.89,6V1.92Z" style="fill:#7f866e"/><path d="M564.4,6.46a13.4,13.4,0,0,0-.76,5V68.2c0,4.69.27,9.43,2.94,12.52H555.39c1.78-2.5,2.45-6.28,2.45-12.13V18.72c0-5.84-.51-9.69-2.15-12.26h8.71m37.5-4.54H542.67V6c9.48.77,10.64,1.42,10.64,12.7V68.59c0,10.77-1.16,11.67-12.31,12.57v4.1h64.1c1.16-3.85,3.72-15.65,4.49-20.9l-4.23-.77c-2.18,5.38-4.49,9.61-6.92,12.31-3,3.33-7.06,4.23-14.88,4.23-5.38,0-9.87-.13-12.3-1.41s-3.08-4.36-3.08-10.52V45.38h10c11,0,12.44.65,14.1,9.75h4.23V29.75h-4.23c-1.66,9-2.95,9.74-14.23,9.74h-9.87V11.41c0-4.11.38-4.36,4.87-4.36h7.56c7.95,0,11.41.9,13.47,3.46s3.58,6.16,4.74,11l4.36-.64c-.51-7.57-1.16-16.41-1.28-19Z" style="fill:#7f866e"/></g></g></g></svg>